<?xml version="1.0" standalone="no"?>
<!DOCTYPE svg PUBLIC "-//W3C//DTD SVG 20010904//EN"
 "http://www.w3.org/TR/2001/REC-SVG-20010904/DTD/svg10.dtd">
<svg version="1.0" xmlns="http://www.w3.org/2000/svg"
 width="70.000000pt" height="70.000000pt" viewBox="0 0 70.000000 70.000000"
 preserveAspectRatio="xMidYMid meet">
<metadata>
Created by potrace 1.14, written by Peter Selinger 2001-2017
</metadata>
<g transform="translate(0.000000,70.000000) scale(0.100000,-0.100000)"
fill="#000000" stroke="none">
<path d="M266 623 c-1 -1 -25 -4 -53 -7 -114 -11 -131 -43 -136 -254 -1 -56 0
-102 3 -102 3 0 5 -15 4 -32 -2 -68 39 -136 85 -139 9 -1 27 -3 41 -5 51 -7
236 -7 284 0 110 16 129 54 128 268 -1 169 -20 236 -72 253 -37 12 -275 27
-284 18z m107 -177 c2 -67 7 -70 119 -75 19 -1 26 -6 24 -18 -3 -19 -39 -29
-98 -28 -21 0 -38 -4 -39 -10 0 -5 -2 -34 -5 -64 -2 -30 -7 -58 -11 -62 -18
-18 -34 11 -37 64 -1 32 -5 59 -8 62 -2 3 -32 8 -66 11 -38 4 -63 12 -66 21
-7 18 9 24 72 27 28 1 54 5 58 9 4 3 8 32 10 63 4 55 19 83 37 65 5 -5 9 -34
10 -65z"/>
</g>
</svg>
