<?xml version="1.0" standalone="no"?>
<!DOCTYPE svg PUBLIC "-//W3C//DTD SVG 20010904//EN"
 "http://www.w3.org/TR/2001/REC-SVG-20010904/DTD/svg10.dtd">
<svg version="1.0" xmlns="http://www.w3.org/2000/svg"
 width="64.000000pt" height="64.000000pt" viewBox="0 0 64.000000 64.000000"
 preserveAspectRatio="xMidYMid meet">

<g transform="translate(0.000000,64.000000) scale(0.100000,-0.100000)"
fill="#000000" stroke="none">
<path d="M182 457 c-109 -40 -114 -44 -143 -89 -36 -59 -36 -76 -4 -84 24 -6
25 -9 25 -88 0 -44 4 -86 8 -93 8 -13 223 -93 250 -93 9 0 70 19 135 41 l117
42 0 89 0 89 30 10 c17 6 30 16 30 21 0 6 -13 34 -30 63 l-30 52 -117 42 c-65
22 -127 41 -138 40 -11 0 -71 -19 -133 -42z m325 -51 c2 -2 -35 -17 -82 -33
l-85 -30 0 62 0 62 82 -29 c45 -16 84 -30 85 -32z m-311 -58 c49 -17 91 -33
92 -34 6 -4 -7 -37 -22 -57 -13 -17 -19 -16 -119 18 l-105 37 20 34 c11 19 26
34 33 34 7 0 53 -14 101 -32z m379 1 c9 -17 14 -33 11 -36 -5 -5 -187 -73
-197 -73 -8 0 -44 68 -39 73 10 9 176 66 192 66 10 1 25 -13 33 -30z m-226
-104 c11 -19 26 -35 34 -35 7 0 46 11 85 24 l72 25 0 -73 0 -74 -100 -34 -100
-35 0 56 c0 31 -5 63 -10 71 -16 25 -30 -7 -30 -71 l0 -56 -100 35 -100 34 0
75 c0 68 2 74 18 68 47 -19 127 -45 139 -45 7 0 23 16 34 35 12 19 25 35 29
35 4 0 17 -16 29 -35z"/>
</g>
</svg>
