<?xml version="1.0" standalone="no"?>
<!DOCTYPE svg PUBLIC "-//W3C//DTD SVG 20010904//EN"
 "http://www.w3.org/TR/2001/REC-SVG-20010904/DTD/svg10.dtd">
<svg version="1.0" xmlns="http://www.w3.org/2000/svg"
 width="66.000000pt" height="66.000000pt" viewBox="0 0 66.000000 66.000000"
 preserveAspectRatio="xMidYMid meet">

<g transform="translate(0.000000,66.000000) scale(0.100000,-0.100000)"
fill="#000000" stroke="none">
<path d="M360 572 c-27 -22 -29 -65 -5 -92 13 -14 31 -20 62 -20 l43 0 0 -130
0 -130 -43 0 c-51 0 -79 -24 -79 -67 -1 -43 33 -63 109 -63 69 0 116 17 133
49 13 26 13 396 0 422 -17 32 -64 49 -133 49 -48 0 -71 -5 -87 -18z"/>
<path d="M140 399 c-36 -28 -66 -58 -68 -68 -3 -19 124 -121 151 -121 10 0 17
10 19 28 3 26 5 27 78 32 l75 5 0 55 0 55 -77 3 -78 3 0 29 c0 43 -24 38 -100
-21z"/>
</g>
</svg>
