<?xml version="1.0" standalone="no"?>
<!DOCTYPE svg PUBLIC "-//W3C//DTD SVG 20010904//EN"
 "http://www.w3.org/TR/2001/REC-SVG-20010904/DTD/svg10.dtd">
<svg version="1.0" xmlns="http://www.w3.org/2000/svg"
 width="64.000000pt" height="64.000000pt" viewBox="0 0 64.000000 64.000000"
 preserveAspectRatio="xMidYMid meet">

<g transform="translate(0.000000,64.000000) scale(0.100000,-0.100000)"
fill="#000000" stroke="none">
<path d="M96 541 c-17 -19 -15 -23 63 -116 45 -53 81 -100 81 -105 0 -5 -35
-51 -79 -102 -78 -94 -78 -94 -60 -117 l18 -22 96 80 c53 45 100 81 105 81 5
0 52 -36 105 -81 l96 -80 18 22 c18 23 18 23 -60 117 -44 51 -79 97 -79 102 0
5 37 52 81 105 l82 97 -21 20 -20 21 -97 -82 c-53 -44 -100 -81 -105 -81 -5 0
-51 36 -104 80 -52 44 -97 80 -99 80 -2 0 -12 -9 -21 -19z"/>
</g>
</svg>
